<?xml version="1.0" encoding="UTF-8"?>
<svg width="100px" height="100px" viewBox="0 0 80 80" version="1.1" xmlns="http://www.w3.org/2000/svg" xmlns:xlink="http://www.w3.org/1999/xlink">
    <!-- Generator: Sketch 63.1 (92452) - https://sketch.com -->
    <title>construction-24px</title>
    <desc>Created with Sketch.</desc>
    <g id="Page-1" stroke="none" stroke-width="1" fill="none" fill-rule="evenodd" opacity="0.5">
        <g id="Custom-Preset" transform="translate(-2.000000, -2.000000)">
            <g id="construction-24px" transform="translate(2.000000, 2.000000)">
                <rect id="Rectangle" x="11" y="11" width="24" height="24"></rect>
                <g id="Group" transform="translate(13.000000, 13.000000)" fill="#000000" fill-rule="nonzero">
                    <rect id="Rectangle" transform="translate(15.841445, 15.109317) rotate(-45.000000) translate(-15.841445, -15.109317) " x="14.3414594" y="10.8693577" width="2.99997123" height="8.47991868"></rect>
                    <path d="M15.5,8 C17.43,8 19,6.43 19,4.5 C19,3.92 18.84,3.38 18.59,2.9 L15.89,5.6 L14.4,4.11 L17.1,1.41 C16.62,1.16 16.08,1 15.5,1 C13.57,1 12,2.57 12,4.5 C12,4.91 12.08,5.3 12.21,5.66 L10.36,7.51 L8.58,5.73 L9.29,5.02 L7.88,3.61 L10,1.49 C8.83,0.32 6.93,0.32 5.76,1.49 L2.22,5.03 L3.63,6.44 L0.81,6.44 L0.1,7.15 L3.64,10.69 L4.35,9.98 L4.35,7.15 L5.76,8.56 L6.47,7.85 L8.25,9.63 L0.84,17.04 L2.96,19.16 L14.34,7.79 C14.7,7.92 15.09,8 15.5,8 Z" id="Path"></path>
                </g>
                <path d="M41.7421288,22.7099041 L45.7628801,20.6964425 C45.9607782,20.5972923 46.0941413,20.3374085 46.0591234,20.1187145 L45.1321556,15.8463978 C45.0728533,15.6330704 44.8434258,15.4469792 44.622585,15.4326232 L40.0501342,15.1369166 C39.8291592,15.1225606 39.566458,14.9493495 39.4663685,14.7519882 L38.8446333,13.6087413 C38.7332737,13.4174175 38.7344812,13.105074 38.8474508,12.9146894 L41.1563506,9.02166615 C41.2693202,8.83128154 41.2423524,8.53919746 41.0965116,8.37269477 L37.9854204,5.20042286 C37.8217352,5.05136204 37.5293828,5.01728332 37.3359123,5.12475202 L33.357424,7.33248905 C33.1638193,7.43995774 32.8505367,7.43392018 32.6610912,7.31934057 L31.5860018,6.70874129 C31.3905188,6.60489513 31.2240161,6.33883968 31.2161002,6.11759638 L31.052415,1.55668404 C31.0444991,1.33544075 30.8645796,1.10212232 30.6527281,1.03812411 L26.3437835,0.00717599018 C26.1258945,-0.0322694481 25.8619857,0.0949219651 25.7572004,0.290002466 L23.6174866,4.27291839 C23.5127013,4.46799889 23.3354651,4.62578064 23.2235689,4.62363395 L23.1214669,4.62363395 C22.5005367,4.62363395 21.6835868,4.68521714 21.6835868,4.68521714 C21.4628801,4.70185399 21.1788462,4.56674665 21.0525939,4.38481463 L18.4369857,0.618982788 C18.3107335,0.437184935 18.0328712,0.336827153 17.8195438,0.395861142 L13.7038014,1.78423324 C13.49839,1.86688082 13.3444991,2.11509191 13.3618068,2.33579853 L13.7126565,6.8119166 C13.7299642,7.03262322 13.5919052,7.31142465 13.4059481,7.43150515 L12.0974061,8.33754272 C11.9196333,8.46943002 11.6068873,8.50820461 11.4022809,8.42354451 L7.16484794,6.66916168 C6.9602415,6.58450157 6.67177996,6.64984146 6.52365832,6.81433163 L3.88269231,10.0892422 C3.75322004,10.2687592 3.75670841,10.5599041 3.89060823,10.736201 L6.59275492,14.2951456 C6.72665474,14.4714425 6.76006261,14.7800293 6.66708408,14.9810132 L5.93224508,16.7402261 C5.85456172,16.9475159 5.61265653,17.1493048 5.39476744,17.1886161 L0.899194991,18.0004676 C0.681305903,18.0397789 0.474686941,18.2508254 0.43980322,18.4695195 C0.43980322,18.4695195 0,21.2340543 0,22.8843227 L0,22.8931778 C0,22.9029721 0.170527728,22.9730078 0.378354204,23.048947 L4.57365832,24.5812815 C4.78161896,24.6572207 4.97723614,24.8987234 5.00849732,25.11782 L5.40174419,27.2620955 C5.45084973,27.4779721 5.35840787,27.7779721 5.19646691,27.9289112 L1.87365832,31.0234998 C1.71171735,31.174439 1.65389088,31.4627663 1.74525939,31.6644211 L3.55746869,35.1780168 C3.6690966,35.3692064 3.93716458,35.4859327 4.15317531,35.4373638 L8.52960644,34.4540454 C8.74561717,34.4054765 9.0421288,34.5015409 9.18864043,34.6675069 L10.8018784,36.3450114 C10.961941,36.4979631 11.0482111,36.7984998 10.9934705,37.0130347 L9.87960644,41.3799399 C9.82486583,41.5944747 9.93313953,41.8669703 10.1201699,41.9854407 L13.5366279,43.9107538 C13.7347943,44.0095016 14.0240608,43.9613352 14.1795617,43.8038218 L17.3486136,40.5912994 C17.5041145,40.4336518 17.8062612,40.3518093 18.0199911,40.4092332 L20.2733453,40.910083 C20.4912343,40.9489917 20.7268336,41.152659 20.7967352,41.3627663 L22.2107335,45.6090543 C22.2806351,45.8190275 22.5189177,45.9959953 22.7402952,46.0023012 C22.7402952,46.0023012 22.8588998,46.0056554 23.1210644,46.0056554 C24.480322,46.0056554 26.7075134,45.7145105 26.7075134,45.7145105 C26.9270125,45.6857985 27.1439624,45.485083 27.1894454,45.2684014 L28.1254025,40.8201903 C28.1710197,40.6035087 28.3800537,40.3688486 28.5900268,40.2986787 L30.5724955,39.5470687 C30.7761628,39.4601277 31.0836762,39.502659 31.2560823,39.641523 L34.7337209,42.4430883 C34.906127,42.5819524 35.1970036,42.5938933 35.3801431,42.4695195 L38.6447227,39.9938486 C38.8137746,39.8508254 38.8875671,39.5646447 38.8088104,39.3577574 L37.180814,35.0822207 C37.1020572,34.8753334 37.1499553,34.5639291 37.2872093,34.3903155 L38.3649821,32.9211742 C38.4894902,32.7381688 38.7713775,32.6076232 38.9915474,32.631371 L43.440966,33.1090096 C43.661136,33.1326232 43.9128354,32.9855749 44.0004472,32.7823102 L45.4579159,28.7967109 C45.522585,28.5849935 45.4298748,28.3041796 45.2516995,28.1728289 L41.5591234,25.4477395 C41.3809481,25.3162547 41.252415,25.028464 41.2734794,24.8080257 L41.3692755,23.2924622 C41.3763864,23.0712189 41.5440966,22.8090543 41.7421288,22.7099041 Z M23,37 C15.268147,37 9,30.7321318 9,23 C9,15.2680076 15.2678682,9 23,9 C30.7321318,9 37,15.2678682 37,23 C37,30.7321318 30.7321318,37 23,37 Z" id="Shape" fill="#000000" fill-rule="nonzero"></path>
            </g>
        </g>
    </g>
</svg>